<svg width="16" height="16" viewBox="0 0 16 16" fill="none" xmlns="http://www.w3.org/2000/svg">
<path d="M4.18145 12.5114L4.535 12.865L4.18145 12.5114C3.95067 12.7422 3.825 13.0345 3.825 13.3638C3.825 13.687 3.94673 13.9762 4.18125 14.1988C4.40383 14.4333 4.69299 14.555 5.01625 14.555C5.33154 14.555 5.62118 14.4449 5.84912 14.218L6.8 13.2856V14.3C6.8 14.6242 6.91513 14.9197 7.1477 15.1523C7.38026 15.3849 7.67575 15.5 8 15.5C8.31743 15.5 8.61039 15.3926 8.84436 15.1688C9.08441 14.9392 9.2 14.6419 9.2 14.3175V13.2937L10.1314 14.2161C10.1318 14.2164 10.1321 14.2167 10.1324 14.217C10.3605 14.4446 10.6505 14.555 10.9663 14.555C11.2824 14.555 11.5728 14.4443 11.8011 14.2161C12.0318 13.9853 12.1575 13.693 12.1575 13.3638C12.1575 13.0478 12.047 12.7577 11.8191 12.5295C11.8189 12.5293 11.8187 12.5291 11.8186 12.5289L9.2 9.89382V9.2H9.89289L12.5047 11.8118C12.7282 12.0509 13.0198 12.175 13.3462 12.175C13.6755 12.175 13.9678 12.0493 14.1986 11.8186C14.4268 11.5903 14.5375 11.2999 14.5375 10.9838C14.5375 10.6689 14.4277 10.3797 14.2015 10.1519L13.2773 9.2H14.3C14.6242 9.2 14.9197 9.08487 15.1523 8.8523C15.3849 8.61974 15.5 8.32425 15.5 8C15.5 7.67575 15.3849 7.38026 15.1523 7.1477C14.9197 6.91513 14.6242 6.8 14.3 6.8H13.2854L14.2005 5.86658C14.4274 5.63865 14.5375 5.34902 14.5375 5.03375C14.5375 4.71757 14.4268 4.42718 14.1986 4.19895L13.845 4.5525L14.1986 4.19895C13.9678 3.96817 13.6755 3.8425 13.3462 3.8425C13.0301 3.8425 12.7397 3.95322 12.5114 4.18145L9.89289 6.8H9.2V6.10711L11.8186 3.48855C12.0468 3.26032 12.1575 2.96993 12.1575 2.65375C12.1575 2.33804 12.0477 2.05073 11.8336 1.81714L11.8189 1.80111L11.8029 1.78642C11.5693 1.57229 11.282 1.4625 10.9663 1.4625C10.651 1.4625 10.3613 1.57259 10.1334 1.7995L9.2 2.7146V1.7C9.2 1.37575 9.08487 1.08026 8.8523 0.847697C8.61974 0.615134 8.32425 0.5 8 0.5C7.67575 0.5 7.38026 0.615134 7.1477 0.847697C6.91513 1.08026 6.8 1.37575 6.8 1.7V2.72268L5.8481 1.7985C5.62032 1.57226 5.33107 1.4625 5.01625 1.4625C4.70007 1.4625 4.40968 1.57322 4.18145 1.80145C3.95067 2.03222 3.825 2.32447 3.825 2.65375C3.825 2.96993 3.93572 3.26032 4.16395 3.48855L4.16506 3.48967L6.8 6.10803V6.8H6.10711L3.48855 4.18145L3.48087 4.17376L3.47286 4.16642C3.23927 3.9523 2.95196 3.8425 2.63625 3.8425C2.32007 3.8425 2.02968 3.95322 1.80145 4.18145C1.57067 4.41222 1.445 4.70447 1.445 5.03375C1.445 5.34947 1.55539 5.63947 1.78295 5.86755C1.78328 5.86789 1.78361 5.86822 1.78395 5.86855L2.70625 6.8H1.7C1.37575 6.8 1.08026 6.91513 0.847697 7.1477C0.615134 7.38026 0.5 7.67575 0.5 8C0.5 8.31743 0.607376 8.61039 0.831179 8.84436C1.06079 9.08441 1.3581 9.2 1.6825 9.2H2.71443L1.78204 10.1509C1.5551 10.3788 1.445 10.6685 1.445 10.9838C1.445 11.2999 1.55572 11.5903 1.78395 11.8186C2.01472 12.0493 2.30697 12.175 2.63625 12.175C2.95243 12.175 3.24282 12.0643 3.47105 11.8361L6.10711 9.2H6.8V9.89289L4.18145 12.5114Z" fill="#1D9FD0" stroke="white"/>
</svg>
