<svg width="12" height="14" viewBox="0 0 12 14" fill="none" xmlns="http://www.w3.org/2000/svg">
<path d="M0 8.55556C0 7.19444 0.3125 5.98241 0.9375 4.91944C1.5625 3.85648 2.25 2.96204 3 2.23611C3.75 1.51019 4.4375 0.956019 5.0625 0.573611L6 0V2.56667C6 3.0463 6.15625 3.42546 6.46875 3.70417C6.78125 3.98287 7.13125 4.12222 7.51875 4.12222C7.73125 4.12222 7.93438 4.07685 8.12813 3.98611C8.32188 3.89537 8.5 3.7463 8.6625 3.53889L9 3.11111C9.9 3.65556 10.625 4.41065 11.175 5.37639C11.725 6.34213 12 7.40185 12 8.55556C12 9.6963 11.7313 10.7366 11.1938 11.6764C10.6562 12.6162 9.95 13.3583 9.075 13.9028C9.2875 13.5917 9.45312 13.2514 9.57188 12.8819C9.69063 12.5125 9.75 12.1204 9.75 11.7056C9.75 11.187 9.65625 10.6977 9.46875 10.2375C9.28125 9.77732 9.0125 9.36574 8.6625 9.00278L6 6.3L3.35625 9.00278C2.99375 9.3787 2.71875 9.79352 2.53125 10.2472C2.34375 10.7009 2.25 11.187 2.25 11.7056C2.25 12.1204 2.30938 12.5125 2.42813 12.8819C2.54688 13.2514 2.7125 13.5917 2.925 13.9028C2.05 13.3583 1.34375 12.6162 0.80625 11.6764C0.26875 10.7366 0 9.6963 0 8.55556ZM6 8.47778L7.59375 10.0917C7.80625 10.312 7.96875 10.5583 8.08125 10.8306C8.19375 11.1028 8.25 11.3944 8.25 11.7056C8.25 12.3407 8.03125 12.8819 7.59375 13.3292C7.15625 13.7764 6.625 14 6 14C5.375 14 4.84375 13.7764 4.40625 13.3292C3.96875 12.8819 3.75 12.3407 3.75 11.7056C3.75 11.4074 3.80625 11.119 3.91875 10.8403C4.03125 10.5616 4.19375 10.312 4.40625 10.0917L6 8.47778Z" fill="#ED4F4F"/>
</svg>
